<svg xmlns="http://www.w3.org/2000/svg" viewBox="0 0 100 100">
  <rect width="100" height="100" rx="18" fill="#052e16"/>
  <!-- Grid/map background -->
  <line x1="20" y1="35" x2="80" y2="35" stroke="#166534" stroke-width="1.5"/>
  <line x1="20" y1="55" x2="80" y2="55" stroke="#166534" stroke-width="1.5"/>
  <line x1="20" y1="75" x2="80" y2="75" stroke="#166534" stroke-width="1.5"/>
  <line x1="35" y1="20" x2="35" y2="80" stroke="#166534" stroke-width="1.5"/>
  <line x1="55" y1="20" x2="55" y2="80" stroke="#166534" stroke-width="1.5"/>
  <line x1="75" y1="20" x2="75" y2="80" stroke="#166534" stroke-width="1.5"/>
  <!-- Path line -->
  <polyline points="25,75 35,55 55,55 55,35 75,35" fill="none" stroke="#4ade80" stroke-width="4" stroke-linecap="round" stroke-linejoin="round"/>
  <!-- Start dot -->
  <circle cx="25" cy="75" r="6" fill="#16a34a"/>
  <!-- End star -->
  <polygon points="75,22 77,30 85,30 79,35 81,43 75,38 69,43 71,35 65,30 73,30" fill="#fbbf24"/>
</svg>
